
        <svg xmlns="http://www.w3.org/2000/svg" xmlns:xlink="http://www.w3.org/1999/xlink" version="1.1" width="3162.1621621621625" 
        height="641.1200630770755" viewBox="0 0 3162.1621621621625 641.1200630770755">
			
			<g transform="scale(8.108108108108109) translate(10, 10)">
				<defs id="SvgjsDefs1001"></defs><g id="SvgjsG1007" featureKey="symbolFeature-0" transform="matrix(1.4151266274463654,0,0,1.4151266274463654,-18.78081203082202,-44.576486065420674)" fill="#111111"><g xmlns="http://www.w3.org/2000/svg"><path d="M83.2,49.2C83.2,49.2,83.2,49.2,83.2,49.2c-0.3,0-0.5-0.3-0.4-0.5c1.4-10.3-1.3-15.1-2-16.2c-1.2,0.3-6.4,2.2-12.1,10.9   c-0.1,0.2-0.3,0.2-0.5,0.2c-0.1,0-11.2-2.2-19.5-2.2c-8.3,0-19.4,2.2-19.5,2.2c-0.2,0-0.4,0-0.5-0.2c-5.7-8.7-10.9-10.6-12.1-10.9   c-0.7,1-3.4,5.9-2,16.2c0,0.2-0.1,0.5-0.4,0.5c-0.2,0-0.5-0.1-0.5-0.4c-1.7-12.1,2.2-16.9,2.3-17.1c0.1-0.1,0.3-0.2,0.4-0.2   c0.3,0,6.2,1.1,12.8,11.1c1.8-0.3,11.7-2.1,19.4-2.1c7.6,0,17.6,1.8,19.4,2.1c6.6-10,12.5-11.1,12.8-11.1c0.2,0,0.3,0,0.4,0.2   c0.2,0.2,4,4.9,2.3,17.1C83.6,49,83.4,49.2,83.2,49.2z"></path></g><path xmlns="http://www.w3.org/2000/svg" d="M52.3,66c-0.9,1.4-2.2,2.8-3.6,4c-1.4-1.2-2.6-2.6-3.6-4c0,0,1.8-0.8,3.6-0.8C50.5,65.2,52.3,66,52.3,66z"></path><g xmlns="http://www.w3.org/2000/svg"><path d="M43.5,73.2c-0.1,0-0.3-0.1-0.3-0.2c0-0.2,0.1-0.3,0.2-0.3c1.6-0.3,3.3-1.3,5.1-2.9c0.1-0.1,0.3-0.1,0.4,0   c1.8,1.5,3.5,2.5,5.1,2.9c0.2,0,0.3,0.2,0.2,0.3c0,0.2-0.2,0.2-0.3,0.2c-1.6-0.4-3.4-1.3-5.2-2.9C47,71.9,45.2,72.9,43.5,73.2   C43.6,73.2,43.6,73.2,43.5,73.2z"></path></g><circle xmlns="http://www.w3.org/2000/svg" cx="68.8" cy="55.8" r="2.9"></circle><circle xmlns="http://www.w3.org/2000/svg" cx="68.8" cy="55.8" r="2.9"></circle><circle xmlns="http://www.w3.org/2000/svg" cx="28.7" cy="55.8" r="2.9"></circle></g><g id="SvgjsG1008" featureKey="nameFeature-0" transform="matrix(1.9254465316636886,0,0,1.9254465316636886,117.92052156520094,-19.640783661086626)" fill="#111111"><path d="M29.48 32.72 c-1 1.84 -1.52 2.56 -2.2 3.36 c-1.68 1.92 -5.28 4.8 -11.56 4.8 c-3.6 0 -6.8 -0.88 -9.56 -3.24 c-4.72 -3.96 -5.08 -9.6 -5.08 -11.6 c0 -1.72 0.2 -5.64 2.92 -9.44 c3.88 -5.48 9.28 -5.88 11.76 -5.88 c6.44 0 10.28 3.36 11.84 5.16 c0.84 0.96 1.24 1.64 1.84 2.72 l-7.48 3.72 c-0.12 -0.28 -0.28 -0.56 -0.4 -0.84 c-0.48 -0.96 -1.88 -3.88 -5.48 -3.84 c-1.64 0 -2.68 0.6 -3.24 1 c-2.8 2.08 -2.68 6.16 -2.68 6.88 c0 3.88 1.24 5.96 2.6 7.04 c1.4 1.08 2.68 1.12 3.36 1.12 c3.08 0 4.52 -2.08 5.08 -3.04 c0.2 -0.4 0.36 -0.76 0.64 -1.6 z M53.2 40 l-8.12 0 l0 -1.6 c-0.32 0.24 -0.72 0.56 -1.52 0.96 c-0.88 0.44 -2.76 1.12 -5.36 1.12 c-0.52 0 -1.92 0 -3.32 -0.52 c-2.68 -1.04 -4.12 -3.36 -4.12 -6.16 c0 -1.12 0.24 -3.6 2.84 -5.36 c1.72 -1.16 3.92 -1.44 5.92 -1.72 c1.16 -0.16 2.4 -0.32 3.56 -0.56 c0.52 -0.12 1.08 -0.24 1.6 -0.4 c0 -0.08 0 -0.64 -0.12 -0.96 c-0.24 -0.84 -0.84 -1.44 -2.68 -1.44 c-0.6 0 -1 0.08 -1.2 0.12 c-1.28 0.32 -1.4 1.4 -1.52 1.84 l-7.72 0.2 c0.08 -0.44 0.2 -0.84 0.28 -1.24 c0.2 -0.8 0.64 -2.24 2.28 -3.52 s4.16 -2.16 8.64 -2.16 c3.24 0 7.64 0.52 9.24 3.88 c0.44 0.92 0.6 1.76 0.6 3.68 l0 11.28 c0 1.52 0.2 1.84 0.72 2.56 z M44.64 30.36 c-1.04 0.36 -2.08 0.68 -3.12 0.96 c-0.88 0.2 -2.12 0.48 -2.76 1.28 c-0.08 0.12 -0.36 0.48 -0.36 0.96 c0 0.64 0.52 1.6 2.04 1.6 c0.72 0 1.36 -0.24 2 -0.56 c2.32 -1.24 2.2 -3.28 2.2 -4.24 z M68.92 39.84 c-0.68 0.08 -2.96 0.44 -5.2 0.44 c-4.36 0 -6 -1.68 -6.6 -3.76 c-0.2 -0.76 -0.24 -1.52 -0.24 -2.24 l0.12 -10.04 l-2.84 0 l0 -4.48 l2.88 0 l0.08 -6.52 l8.28 0 l-0.04 6.52 l3.52 0 l0 4.48 l-3.6 0 l-0.12 7.96 c0 0.84 0.12 2.16 2.28 2.16 c0.48 0 0.68 0 1.48 -0.16 l0 5.64 z M83.92 39.84 c-0.68 0.08 -2.96 0.44 -5.2 0.44 c-4.36 0 -6 -1.68 -6.6 -3.76 c-0.2 -0.76 -0.24 -1.52 -0.24 -2.24 l0.12 -10.04 l-2.84 0 l0 -4.48 l2.88 0 l0.08 -6.52 l8.28 0 l-0.04 6.52 l3.52 0 l0 4.48 l-3.6 0 l-0.12 7.96 c0 0.84 0.12 2.16 2.28 2.16 c0.48 0 0.68 0 1.48 -0.16 l0 5.64 z M108.24 40 l-7.84 0 l0 -3.04 c-0.28 0.56 -0.48 1.08 -1.4 1.84 c-0.96 0.8 -2.56 1.72 -5.44 1.72 c-0.76 0 -3.44 -0.04 -5.48 -1.76 c-0.56 -0.48 -1.52 -1.52 -2 -3.36 c-0.24 -0.84 -0.36 -1.72 -0.36 -3.52 l0 -12.6 l8.28 0 l0 11.28 c0 0.96 -0.08 3.36 3 3.36 c0.8 0 1.6 -0.2 2.12 -0.72 c0.96 -1 0.84 -2.76 0.84 -2.96 l0 -10.96 l8.28 0 l0 20.72 z M130.92000000000002 33.08 c0 1.2 -0.24 2.28 -0.84 3.36 c-2.36 4.28 -7.88 4.36 -9 4.36 c-3.08 0 -6.24 -0.88 -8.84 -2.52 c-0.8 -0.48 -1.52 -1.08 -2.28 -1.64 l4.64 -4.2 c0.4 0.36 0.76 0.68 1.16 1 c0.68 0.48 2.72 1.76 5.24 1.76 c0.2 0 0.84 0 1.36 -0.24 c0.6 -0.28 0.8 -0.8 0.8 -1.08 c0 -0.24 -0.12 -0.44 -0.16 -0.48 c-0.52 -0.8 -1.44 -0.72 -3 -1 c-0.48 -0.08 -2.44 -0.48 -4.08 -1.04 c-1.92 -0.64 -3.4 -1.4 -4.32 -3.36 c-0.36 -0.8 -0.56 -1.6 -0.56 -2.48 c0 -1.8 0.84 -3.16 1.2 -3.68 c1.2 -1.68 3.56 -3.4 8.2 -3.4 c2.48 0 5.64 0.52 7.88 1.68 c0.76 0.4 1.32 0.8 2 1.32 l-4.44 4.04 c-0.6 -0.4 -2.8 -2 -5.32 -2 c-0.16 0 -0.72 0 -1.16 0.2 c-0.48 0.24 -0.6 0.68 -0.6 0.88 c0 0.52 0.44 0.76 0.56 0.8 c0.36 0.2 1.16 0.36 2.16 0.6 c3.04 0.76 4.8 1.04 6.12 1.72 c1.04 0.52 3.28 2.12 3.28 5.4 z"></path></g>
			</g>
		</svg>
	